<svg width="20" height="20" viewBox="0 0 20 20" fill="none" xmlns="http://www.w3.org/2000/svg">
<path fill-rule="evenodd" clip-rule="evenodd" d="M7.13358 0.418273C7.36792 0.686173 7.49957 1.04948 7.49957 1.42829C7.49957 1.8071 7.36792 2.1704 7.13358 2.4383L4.26729 5.71407H11.2499C13.5706 5.71407 15.7962 6.76765 17.4371 8.64305C19.0781 10.5184 20 13.062 20 15.7142V18.5714C20 18.9503 19.8683 19.3137 19.6339 19.5816C19.3995 19.8495 19.0815 20 18.75 20C18.4185 20 18.1005 19.8495 17.8661 19.5816C17.6317 19.3137 17.5 18.9503 17.5 18.5714V15.7142C17.5 13.8198 16.8415 12.0029 15.6694 10.6634C14.4972 9.32381 12.9075 8.57125 11.2499 8.57125H4.26729L7.13358 11.847C7.25297 11.9788 7.3482 12.1364 7.41371 12.3107C7.47922 12.485 7.5137 12.6725 7.51515 12.8622C7.51659 13.0519 7.48496 13.24 7.42211 13.4155C7.35926 13.5911 7.26644 13.7506 7.14907 13.8848C7.0317 14.0189 6.89214 14.125 6.73852 14.1968C6.58489 14.2686 6.42029 14.3048 6.25431 14.3031C6.08834 14.3015 5.92431 14.2621 5.7718 14.1872C5.6193 14.1123 5.48137 14.0035 5.36606 13.867L0.365988 8.15268C0.131646 7.88478 0 7.52147 0 7.14266C0 6.76385 0.131646 6.40055 0.365988 6.13265L5.36606 0.418273C5.60047 0.150453 5.91836 0 6.24982 0C6.58128 0 6.89917 0.150453 7.13358 0.418273Z" fill="#EFF2F7"/>
</svg>
