<svg width="27" height="26" viewBox="0 0 27 26" fill="none" xmlns="http://www.w3.org/2000/svg">
<path d="M0.75 2.5C0.75 2.03587 0.934374 1.59075 1.26256 1.26256C1.59075 0.934374 2.03587 0.75 2.5 0.75H21.75C22.2141 0.75 22.6592 0.934374 22.9874 1.26256C23.3156 1.59075 23.5 2.03587 23.5 2.5V4.25H24.375C25.0712 4.25 25.7389 4.52656 26.2312 5.01884C26.7234 5.51113 27 6.17881 27 6.875V19.125C27 19.8212 26.7234 20.4889 26.2312 20.9812C25.7389 21.4734 25.0712 21.75 24.375 21.75H23.4125C23.2108 22.7382 22.6738 23.6263 21.8925 24.2641C21.1112 24.9019 20.1336 25.2502 19.125 25.25H5.125C3.96468 25.25 2.85188 24.7891 2.03141 23.9686C1.21094 23.1481 0.75 22.0353 0.75 20.875V2.5ZM23.5 20H24.375C24.6071 20 24.8296 19.9078 24.9937 19.7437C25.1578 19.5796 25.25 19.3571 25.25 19.125V6.875C25.25 6.64294 25.1578 6.42038 24.9937 6.25628C24.8296 6.09219 24.6071 6 24.375 6H23.5V20ZM21.75 2.5H2.5V20.875C2.5 21.5712 2.77656 22.2389 3.26884 22.7312C3.76113 23.2234 4.42881 23.5 5.125 23.5H19.125C19.8212 23.5 20.4889 23.2234 20.9812 22.7312C21.4734 22.2389 21.75 21.5712 21.75 20.875V2.5Z" fill="#EFF2F7"/>
</svg>
