<svg width="50" height="50" viewBox="0 0 50 50" fill="none" xmlns="http://www.w3.org/2000/svg">
<path d="M25 50C29.9728 50 34.7419 48.0246 38.2583 44.5083C41.7746 40.9919 43.75 36.2228 43.75 31.25C43.75 26.0781 40.2437 22.175 36.15 17.6187C32.0437 13.05 27.3438 7.82188 25 0C25 0 6.25 17.7687 6.25 31.25C6.25 36.2228 8.22544 40.9919 11.7417 44.5083C15.2581 48.0246 20.0272 50 25 50ZM20.7687 14.5187L22.9813 16.7313C22.075 17.6375 19.4563 20.8281 17.0219 25.7L14.2281 24.3C16.7906 19.1719 19.5938 15.6969 20.7687 14.5187Z" fill="#EFF2F7"/>
</svg>
